<svg width="215" height="164" viewBox="0 0 215 164" fill="none" xmlns="http://www.w3.org/2000/svg">
<path d="M45.696 89V55.496H53.424L61.632 71.192H61.728L69.84 55.496H77.616V89H70.752V67.016H70.608L68.16 71.912L61.632 83.768L55.248 71.96L52.704 66.68H52.56V89H45.696ZM93.2321 89V75.896L81.7601 55.496H89.9201L97.1201 68.84H97.2161L104.128 55.496H112.048L100.576 75.848V89H93.2321ZM124.888 89.576C121.976 89.576 119.48 89.064 117.4 88.04C115.352 87.016 113.608 85.72 112.168 84.152L116.968 79.304C118.088 80.584 119.352 81.544 120.76 82.184C122.2 82.824 123.736 83.144 125.368 83.144C127.16 83.144 128.488 82.776 129.352 82.04C130.216 81.304 130.648 80.328 130.648 79.112C130.648 78.504 130.536 77.96 130.312 77.48C130.12 76.968 129.736 76.552 129.16 76.232C128.616 75.88 127.816 75.64 126.76 75.512L123.448 75.08C121.112 74.76 119.176 74.184 117.64 73.352C116.136 72.488 115.016 71.368 114.28 69.992C113.544 68.584 113.176 66.952 113.176 65.096C113.176 63.08 113.672 61.32 114.664 59.816C115.688 58.28 117.128 57.08 118.984 56.216C120.872 55.352 123.128 54.92 125.752 54.92C128.28 54.92 130.504 55.336 132.424 56.168C134.344 56.968 135.992 58.12 137.368 59.624L132.52 64.52C131.72 63.592 130.744 62.84 129.592 62.264C128.472 61.656 127.048 61.352 125.32 61.352C123.688 61.352 122.472 61.64 121.672 62.216C120.872 62.792 120.472 63.592 120.472 64.616C120.472 65.384 120.6 66.008 120.856 66.488C121.144 66.968 121.576 67.336 122.152 67.592C122.76 67.848 123.528 68.056 124.456 68.216L127.768 68.744C130.072 69.096 131.976 69.688 133.48 70.52C134.984 71.352 136.104 72.44 136.84 73.784C137.576 75.128 137.944 76.76 137.944 78.68C137.944 80.824 137.432 82.712 136.408 84.344C135.416 85.976 133.944 87.256 131.992 88.184C130.04 89.112 127.672 89.576 124.888 89.576Z" fill="white"/>
<path d="M45.7 103V95.215H47.23V96.505H47.305C47.465 96.095 47.705 95.75 48.025 95.47C48.345 95.18 48.805 95.035 49.405 95.035C49.925 95.035 50.39 95.165 50.8 95.425C51.21 95.675 51.515 96.07 51.715 96.61H51.745C51.885 96.19 52.155 95.825 52.555 95.515C52.955 95.195 53.475 95.035 54.115 95.035C54.895 95.035 55.5 95.3 55.93 95.83C56.37 96.35 56.59 97.09 56.59 98.05V103H55.045V98.245C55.045 97.625 54.925 97.155 54.685 96.835C54.445 96.515 54.07 96.355 53.56 96.355C53.28 96.355 53.01 96.405 52.75 96.505C52.5 96.605 52.295 96.755 52.135 96.955C51.985 97.155 51.91 97.41 51.91 97.72V103H50.365V98.245C50.365 97.615 50.245 97.145 50.005 96.835C49.765 96.515 49.395 96.355 48.895 96.355C48.625 96.355 48.36 96.405 48.1 96.505C47.84 96.605 47.63 96.755 47.47 96.955C47.31 97.155 47.23 97.41 47.23 97.72V103H45.7ZM60.8482 103.18C60.0382 103.18 59.4132 102.97 58.9732 102.55C58.5332 102.13 58.3132 101.565 58.3132 100.855C58.3132 100.345 58.4382 99.92 58.6882 99.58C58.9382 99.23 59.3082 98.97 59.7982 98.8C60.2882 98.62 60.8982 98.53 61.6282 98.53H63.0682V97.855C63.0682 97.355 62.9332 96.975 62.6632 96.715C62.4032 96.445 61.9882 96.31 61.4182 96.31C60.9582 96.31 60.5782 96.41 60.2782 96.61C59.9782 96.81 59.7332 97.07 59.5432 97.39L58.6132 96.55C58.8632 96.12 59.2232 95.76 59.6932 95.47C60.1632 95.18 60.7682 95.035 61.5082 95.035C62.4982 95.035 63.2632 95.27 63.8032 95.74C64.3432 96.21 64.6132 96.875 64.6132 97.735V101.725H65.4382V103H64.5832C64.1732 103 63.8582 102.89 63.6382 102.67C63.4182 102.45 63.2782 102.17 63.2182 101.83L63.1882 101.695H63.1132C62.9632 102.185 62.6882 102.555 62.2882 102.805C61.8882 103.055 61.4082 103.18 60.8482 103.18ZM61.2532 101.98C61.6032 101.98 61.9132 101.93 62.1832 101.83C62.4532 101.72 62.6682 101.57 62.8282 101.38C62.9882 101.18 63.0682 100.955 63.0682 100.705V99.55H61.6432C61.0532 99.55 60.6132 99.64 60.3232 99.82C60.0332 100 59.8882 100.265 59.8882 100.615V100.9C59.8882 101.25 60.0132 101.52 60.2632 101.71C60.5132 101.89 60.8432 101.98 61.2532 101.98ZM67.0867 103V95.215H68.6167V96.505H68.6917C68.8617 96.075 69.1217 95.725 69.4717 95.455C69.8217 95.175 70.2917 95.035 70.8817 95.035C71.6817 95.035 72.3067 95.3 72.7567 95.83C73.2067 96.35 73.4317 97.09 73.4317 98.05V103H71.8867V98.245C71.8867 97.615 71.7617 97.145 71.5117 96.835C71.2617 96.515 70.8767 96.355 70.3567 96.355C70.0667 96.355 69.7867 96.405 69.5167 96.505C69.2567 96.605 69.0417 96.755 68.8717 96.955C68.7017 97.155 68.6167 97.41 68.6167 97.72V103H67.0867ZM77.6939 103.18C76.8839 103.18 76.2589 102.97 75.8189 102.55C75.3789 102.13 75.1589 101.565 75.1589 100.855C75.1589 100.345 75.2839 99.92 75.5339 99.58C75.7839 99.23 76.1539 98.97 76.6439 98.8C77.1339 98.62 77.7439 98.53 78.4739 98.53H79.9139V97.855C79.9139 97.355 79.7789 96.975 79.5089 96.715C79.2489 96.445 78.8339 96.31 78.2639 96.31C77.8039 96.31 77.4239 96.41 77.1239 96.61C76.8239 96.81 76.5789 97.07 76.3889 97.39L75.4589 96.55C75.7089 96.12 76.0689 95.76 76.5389 95.47C77.0089 95.18 77.6139 95.035 78.3539 95.035C79.3439 95.035 80.1089 95.27 80.6489 95.74C81.1889 96.21 81.4589 96.875 81.4589 97.735V101.725H82.2839V103H81.4289C81.0189 103 80.7039 102.89 80.4839 102.67C80.2639 102.45 80.1239 102.17 80.0639 101.83L80.0339 101.695H79.9589C79.8089 102.185 79.5339 102.555 79.1339 102.805C78.7339 103.055 78.2539 103.18 77.6939 103.18ZM78.0989 101.98C78.4489 101.98 78.7589 101.93 79.0289 101.83C79.2989 101.72 79.5139 101.57 79.6739 101.38C79.8339 101.18 79.9139 100.955 79.9139 100.705V99.55H78.4889C77.8989 99.55 77.4589 99.64 77.1689 99.82C76.8789 100 76.7339 100.265 76.7339 100.615V100.9C76.7339 101.25 76.8589 101.52 77.1089 101.71C77.3589 101.89 77.6889 101.98 78.0989 101.98ZM86.7824 106.18C85.5224 106.18 84.6224 106.015 84.0824 105.685C83.5424 105.355 83.2724 104.895 83.2724 104.305C83.2724 103.875 83.3874 103.535 83.6174 103.285C83.8574 103.045 84.1774 102.885 84.5774 102.805V102.64C84.3074 102.54 84.0974 102.39 83.9474 102.19C83.8074 101.99 83.7374 101.745 83.7374 101.455C83.7374 101.055 83.8724 100.75 84.1424 100.54C84.4124 100.33 84.7374 100.18 85.1174 100.09V100.03C84.6574 99.81 84.3024 99.5 84.0524 99.1C83.8024 98.7 83.6774 98.235 83.6774 97.705C83.6774 97.175 83.7974 96.71 84.0374 96.31C84.2874 95.91 84.6424 95.6 85.1024 95.38C85.5624 95.15 86.1124 95.035 86.7524 95.035C87.0224 95.035 87.2724 95.055 87.5024 95.095C87.7424 95.135 87.9674 95.2 88.1774 95.29V95.095C88.1774 94.755 88.2574 94.49 88.4174 94.3C88.5774 94.11 88.8274 94.015 89.1674 94.015H90.3524V95.26H88.7924V95.62C89.1324 95.85 89.3874 96.145 89.5574 96.505C89.7374 96.865 89.8274 97.265 89.8274 97.705C89.8274 98.225 89.7074 98.685 89.4674 99.085C89.2274 99.485 88.8774 99.795 88.4174 100.015C87.9574 100.235 87.4024 100.345 86.7524 100.345C86.5824 100.345 86.4124 100.335 86.2424 100.315C86.0824 100.295 85.9324 100.27 85.7924 100.24C85.5924 100.31 85.4074 100.41 85.2374 100.54C85.0774 100.66 84.9974 100.825 84.9974 101.035C84.9974 101.255 85.0924 101.41 85.2824 101.5C85.4824 101.58 85.7574 101.62 86.1074 101.62H87.9674C88.9274 101.62 89.6224 101.81 90.0524 102.19C90.4924 102.57 90.7124 103.095 90.7124 103.765C90.7124 104.295 90.5724 104.74 90.2924 105.1C90.0224 105.46 89.5974 105.73 89.0174 105.91C88.4374 106.09 87.6924 106.18 86.7824 106.18ZM86.2574 105.04H87.3074C87.9474 105.04 88.4324 104.945 88.7624 104.755C89.0924 104.575 89.2574 104.295 89.2574 103.915C89.2574 103.635 89.1474 103.41 88.9274 103.24C88.7174 103.08 88.3374 103 87.7874 103H85.1624C84.9624 103.11 84.8174 103.245 84.7274 103.405C84.6374 103.565 84.5924 103.745 84.5924 103.945C84.5924 104.265 84.7174 104.525 84.9674 104.725C85.2274 104.935 85.6574 105.04 86.2574 105.04ZM86.7524 99.22C87.2424 99.22 87.6224 99.11 87.8924 98.89C88.1624 98.66 88.2974 98.32 88.2974 97.87V97.525C88.2974 97.065 88.1624 96.725 87.8924 96.505C87.6224 96.275 87.2424 96.16 86.7524 96.16C86.2724 96.16 85.8924 96.275 85.6124 96.505C85.3424 96.725 85.2074 97.065 85.2074 97.525V97.87C85.2074 98.32 85.3424 98.66 85.6124 98.89C85.8924 99.11 86.2724 99.22 86.7524 99.22ZM94.9165 103.18C94.1865 103.18 93.5515 103.015 93.0115 102.685C92.4815 102.345 92.0665 101.87 91.7665 101.26C91.4765 100.65 91.3315 99.93 91.3315 99.1C91.3315 98.28 91.4765 97.565 91.7665 96.955C92.0565 96.345 92.4665 95.875 92.9965 95.545C93.5265 95.205 94.1565 95.035 94.8865 95.035C95.6365 95.035 96.2665 95.205 96.7765 95.545C97.2865 95.885 97.6715 96.35 97.9315 96.94C98.2015 97.52 98.3365 98.17 98.3365 98.89V99.49H92.9365V99.775C92.9365 100.395 93.1165 100.905 93.4765 101.305C93.8465 101.705 94.3715 101.905 95.0515 101.905C95.5315 101.905 95.9415 101.795 96.2815 101.575C96.6215 101.355 96.9015 101.06 97.1215 100.69L98.0515 101.56C97.7715 102.04 97.3615 102.43 96.8215 102.73C96.2815 103.03 95.6465 103.18 94.9165 103.18ZM92.9365 98.455H96.7165V98.305C96.7165 97.895 96.6415 97.535 96.4915 97.225C96.3515 96.915 96.1415 96.675 95.8615 96.505C95.5915 96.335 95.2715 96.25 94.9015 96.25C94.5115 96.25 94.1665 96.34 93.8665 96.52C93.5765 96.7 93.3465 96.95 93.1765 97.27C93.0165 97.58 92.9365 97.94 92.9365 98.35V98.455ZM103.782 106V104.725H105.087L105.567 103.33L102.717 95.215H104.262L105.882 99.955L106.317 101.545H106.392L106.872 99.955L108.507 95.215H109.977L106.662 104.605C106.542 104.945 106.402 105.215 106.242 105.415C106.092 105.625 105.892 105.775 105.642 105.865C105.392 105.955 105.062 106 104.652 106H103.782ZM114.311 103.18C113.591 103.18 112.961 103.015 112.421 102.685C111.891 102.345 111.476 101.87 111.176 101.26C110.886 100.65 110.741 99.93 110.741 99.1C110.741 98.27 110.886 97.555 111.176 96.955C111.476 96.345 111.891 95.875 112.421 95.545C112.961 95.205 113.591 95.035 114.311 95.035C115.021 95.035 115.641 95.205 116.171 95.545C116.711 95.875 117.126 96.345 117.416 96.955C117.716 97.555 117.866 98.27 117.866 99.1C117.866 99.93 117.716 100.65 117.416 101.26C117.126 101.87 116.711 102.345 116.171 102.685C115.641 103.015 115.021 103.18 114.311 103.18ZM114.311 101.89C114.891 101.89 115.356 101.71 115.706 101.35C116.056 100.99 116.231 100.455 116.231 99.745V98.47C116.231 97.76 116.056 97.225 115.706 96.865C115.356 96.505 114.891 96.325 114.311 96.325C113.741 96.325 113.276 96.505 112.916 96.865C112.556 97.225 112.376 97.76 112.376 98.47V99.745C112.376 100.455 112.556 100.99 112.916 101.35C113.276 101.71 113.741 101.89 114.311 101.89ZM122.164 103.18C121.364 103.18 120.734 102.92 120.274 102.4C119.824 101.87 119.599 101.13 119.599 100.18V95.215H121.144V99.97C121.144 100.59 121.269 101.06 121.519 101.38C121.779 101.7 122.169 101.86 122.689 101.86C122.979 101.86 123.254 101.81 123.514 101.71C123.784 101.61 123.999 101.46 124.159 101.26C124.329 101.06 124.414 100.805 124.414 100.495V95.215H125.944V103H124.414V101.725H124.339C124.199 102.105 123.964 102.445 123.634 102.745C123.304 103.035 122.814 103.18 122.164 103.18ZM128.346 103V95.215H129.876V96.73H129.951C130.031 96.47 130.161 96.225 130.341 95.995C130.521 95.765 130.756 95.58 131.046 95.44C131.346 95.29 131.701 95.215 132.111 95.215H132.561V96.7H131.901C131.471 96.7 131.106 96.755 130.806 96.865C130.506 96.965 130.276 97.105 130.116 97.285C129.956 97.465 129.876 97.69 129.876 97.96V103H128.346ZM140.005 103.18C139.285 103.18 138.675 103.05 138.175 102.79C137.675 102.52 137.24 102.155 136.87 101.695L137.875 100.795C138.165 101.145 138.49 101.42 138.85 101.62C139.21 101.82 139.625 101.92 140.095 101.92C140.585 101.92 140.95 101.825 141.19 101.635C141.44 101.445 141.565 101.18 141.565 100.84C141.565 100.57 141.48 100.345 141.31 100.165C141.14 99.985 140.835 99.865 140.395 99.805L139.705 99.715C139.195 99.635 138.745 99.51 138.355 99.34C137.975 99.16 137.68 98.915 137.47 98.605C137.26 98.285 137.155 97.885 137.155 97.405C137.155 96.645 137.42 96.06 137.95 95.65C138.49 95.24 139.18 95.035 140.02 95.035C140.48 95.035 140.88 95.085 141.22 95.185C141.57 95.285 141.88 95.43 142.15 95.62C142.42 95.8 142.665 96.02 142.885 96.28L141.94 97.195C141.74 96.945 141.475 96.735 141.145 96.565C140.825 96.385 140.445 96.295 140.005 96.295C139.555 96.295 139.215 96.385 138.985 96.565C138.755 96.745 138.64 96.995 138.64 97.315C138.64 97.625 138.745 97.86 138.955 98.02C139.165 98.17 139.48 98.28 139.9 98.35L140.605 98.455C141.465 98.575 142.085 98.825 142.465 99.205C142.855 99.575 143.05 100.07 143.05 100.69C143.05 101.19 142.925 101.63 142.675 102.01C142.425 102.38 142.07 102.67 141.61 102.88C141.16 103.08 140.625 103.18 140.005 103.18ZM144.972 103V95.215H146.502V103H144.972ZM145.737 93.73C145.417 93.73 145.182 93.655 145.032 93.505C144.892 93.345 144.822 93.145 144.822 92.905V92.665C144.822 92.425 144.892 92.23 145.032 92.08C145.182 91.93 145.417 91.855 145.737 91.855C146.057 91.855 146.287 91.93 146.427 92.08C146.577 92.23 146.652 92.425 146.652 92.665V92.905C146.652 93.145 146.577 93.345 146.427 93.505C146.287 93.655 146.057 93.73 145.737 93.73ZM150.953 103C150.423 103 150.018 102.855 149.738 102.565C149.458 102.275 149.318 101.88 149.318 101.38V96.49H148.103V95.215H148.763C149.043 95.215 149.233 95.155 149.333 95.035C149.433 94.915 149.483 94.725 149.483 94.465V93.07H150.863V95.215H152.513V96.49H150.863V101.725H152.393V103H150.953ZM157.304 103.18C156.574 103.18 155.939 103.015 155.399 102.685C154.869 102.345 154.454 101.87 154.154 101.26C153.864 100.65 153.719 99.93 153.719 99.1C153.719 98.28 153.864 97.565 154.154 96.955C154.444 96.345 154.854 95.875 155.384 95.545C155.914 95.205 156.544 95.035 157.274 95.035C158.024 95.035 158.654 95.205 159.164 95.545C159.674 95.885 160.059 96.35 160.319 96.94C160.589 97.52 160.724 98.17 160.724 98.89V99.49H155.324V99.775C155.324 100.395 155.504 100.905 155.864 101.305C156.234 101.705 156.759 101.905 157.439 101.905C157.919 101.905 158.329 101.795 158.669 101.575C159.009 101.355 159.289 101.06 159.509 100.69L160.439 101.56C160.159 102.04 159.749 102.43 159.209 102.73C158.669 103.03 158.034 103.18 157.304 103.18ZM155.324 98.455H159.104V98.305C159.104 97.895 159.029 97.535 158.879 97.225C158.739 96.915 158.529 96.675 158.249 96.505C157.979 96.335 157.659 96.25 157.289 96.25C156.899 96.25 156.554 96.34 156.254 96.52C155.964 96.7 155.734 96.95 155.564 97.27C155.404 97.58 155.324 97.94 155.324 98.35V98.455Z" fill="white"/>
<rect x="40" y="4" width="59.375" height="30" rx="3" fill="#444444"/>
<rect x="40.5" y="4.5" width="58.375" height="29" rx="2.5" stroke="white" stroke-opacity="0.0980392"/>
<path d="M51.3438 16C51.2969 15.6042 51.1068 15.2969 50.7734 15.0781C50.4401 14.8594 50.0313 14.75 49.5469 14.75C49.1927 14.75 48.8828 14.8073 48.6172 14.9219C48.3542 15.0365 48.1484 15.194 48 15.3945C47.8542 15.5951 47.7813 15.8229 47.7813 16.0781C47.7813 16.2917 47.832 16.4753 47.9336 16.6289C48.0378 16.7799 48.1706 16.9062 48.332 17.0078C48.4935 17.1068 48.6628 17.1888 48.8398 17.2539C49.0169 17.3164 49.1797 17.3672 49.3281 17.4062L50.1406 17.625C50.349 17.6797 50.5807 17.7552 50.8359 17.8516C51.0938 17.9479 51.3398 18.0794 51.5742 18.2461C51.8112 18.4102 52.0065 18.6211 52.1602 18.8789C52.3138 19.1367 52.3906 19.4531 52.3906 19.8281C52.3906 20.2604 52.2773 20.651 52.0508 21C51.8268 21.349 51.4987 21.6263 51.0664 21.832C50.6367 22.0378 50.1146 22.1406 49.5 22.1406C48.9271 22.1406 48.431 22.0482 48.0117 21.8633C47.5951 21.6784 47.2669 21.4206 47.0273 21.0898C46.7904 20.7591 46.6563 20.375 46.625 19.9375H47.625C47.651 20.2396 47.7526 20.4896 47.9297 20.6875C48.1094 20.8828 48.3359 21.0286 48.6094 21.125C48.8854 21.2187 49.1823 21.2656 49.5 21.2656C49.8698 21.2656 50.2018 21.2057 50.4961 21.0859C50.7904 20.9635 51.0234 20.7943 51.1953 20.5781C51.3672 20.3594 51.4531 20.1042 51.4531 19.8125C51.4531 19.5469 51.3789 19.3307 51.2305 19.1641C51.082 18.9974 50.8867 18.862 50.6445 18.7578C50.4023 18.6536 50.1406 18.5625 49.8594 18.4844L48.875 18.2031C48.25 18.0234 47.7552 17.7669 47.3906 17.4336C47.026 17.1003 46.8438 16.6641 46.8438 16.125C46.8438 15.6771 46.9648 15.2865 47.207 14.9531C47.4518 14.6172 47.7799 14.3568 48.1914 14.1719C48.6055 13.9844 49.0677 13.8906 49.5781 13.8906C50.0938 13.8906 50.5521 13.9831 50.9531 14.168C51.3542 14.3503 51.6719 14.6003 51.9062 14.918C52.1432 15.2357 52.2682 15.5964 52.2813 16H51.3438ZM56.374 22.125C55.7959 22.125 55.2972 21.9974 54.8779 21.7422C54.4613 21.4844 54.1396 21.125 53.9131 20.6641C53.6891 20.2005 53.5771 19.6615 53.5771 19.0469C53.5771 18.4323 53.6891 17.8906 53.9131 17.4219C54.1396 16.9505 54.4548 16.5833 54.8584 16.3203C55.2646 16.0547 55.7386 15.9219 56.2803 15.9219C56.5928 15.9219 56.9014 15.974 57.2061 16.0781C57.5107 16.1823 57.7881 16.3516 58.0381 16.5859C58.2881 16.8177 58.4873 17.125 58.6357 17.5078C58.7842 17.8906 58.8584 18.362 58.8584 18.9219V19.3125H54.2334V18.5156H57.9209C57.9209 18.1771 57.8532 17.875 57.7178 17.6094C57.585 17.3437 57.3949 17.1341 57.1475 16.9805C56.9027 16.8268 56.6136 16.75 56.2803 16.75C55.9131 16.75 55.5954 16.8411 55.3271 17.0234C55.0615 17.2031 54.8571 17.4375 54.7139 17.7266C54.5706 18.0156 54.499 18.3255 54.499 18.6562V19.1875C54.499 19.6406 54.5771 20.0247 54.7334 20.3398C54.8923 20.6523 55.1123 20.8906 55.3936 21.0547C55.6748 21.2161 56.0016 21.2969 56.374 21.2969C56.6162 21.2969 56.835 21.263 57.0303 21.1953C57.2282 21.125 57.3988 21.0208 57.542 20.8828C57.6852 20.7422 57.7959 20.5677 57.874 20.3594L58.7646 20.6094C58.6709 20.9115 58.5133 21.1771 58.292 21.4062C58.0706 21.6328 57.7972 21.8099 57.4717 21.9375C57.1462 22.0625 56.7803 22.125 56.374 22.125ZM62.6982 22.125C62.1357 22.125 61.6514 21.9922 61.2451 21.7266C60.8389 21.4609 60.5264 21.0951 60.3076 20.6289C60.0889 20.1628 59.9795 19.6302 59.9795 19.0312C59.9795 18.4219 60.0915 17.8841 60.3154 17.418C60.542 16.9492 60.8571 16.5833 61.2607 16.3203C61.667 16.0547 62.141 15.9219 62.6826 15.9219C63.1045 15.9219 63.4847 16 63.8232 16.1562C64.1618 16.3125 64.4391 16.5312 64.6553 16.8125C64.8714 17.0937 65.0055 17.4219 65.0576 17.7969H64.1357C64.0654 17.5234 63.9092 17.2812 63.667 17.0703C63.4274 16.8568 63.1045 16.75 62.6982 16.75C62.3389 16.75 62.0238 16.8437 61.7529 17.0312C61.4847 17.2161 61.2751 17.4779 61.124 17.8164C60.9756 18.1523 60.9014 18.5469 60.9014 19C60.9014 19.4635 60.9743 19.8672 61.1201 20.2109C61.2686 20.5547 61.4769 20.8216 61.7451 21.0117C62.016 21.2018 62.3337 21.2969 62.6982 21.2969C62.9378 21.2969 63.1553 21.2552 63.3506 21.1719C63.5459 21.0885 63.7113 20.9688 63.8467 20.8125C63.9821 20.6562 64.0785 20.4687 64.1357 20.25H65.0576C65.0055 20.6042 64.8766 20.9232 64.6709 21.207C64.4678 21.4883 64.1982 21.7122 63.8623 21.8789C63.529 22.043 63.141 22.125 62.6982 22.125ZM69.0146 16V16.7812H65.9053V16H69.0146ZM66.8115 14.5625H67.7334V20.2812C67.7334 20.5417 67.7712 20.737 67.8467 20.8672C67.9248 20.9948 68.0238 21.0807 68.1436 21.125C68.266 21.1667 68.3949 21.1875 68.5303 21.1875C68.6318 21.1875 68.7152 21.1823 68.7803 21.1719C68.8454 21.1589 68.8975 21.1484 68.9365 21.1406L69.124 21.9687C69.0615 21.9922 68.9743 22.0156 68.8623 22.0391C68.7503 22.0651 68.6084 22.0781 68.4365 22.0781C68.1761 22.0781 67.9209 22.0221 67.6709 21.9102C67.4235 21.7982 67.2178 21.6276 67.0537 21.3984C66.8923 21.1693 66.8115 20.8802 66.8115 20.5312V14.5625ZM70.4014 22V16H71.3232V22H70.4014ZM70.8701 15C70.6904 15 70.5355 14.9388 70.4053 14.8164C70.2777 14.694 70.2139 14.5469 70.2139 14.375C70.2139 14.2031 70.2777 14.056 70.4053 13.9336C70.5355 13.8112 70.6904 13.75 70.8701 13.75C71.0498 13.75 71.2035 13.8112 71.3311 13.9336C71.4613 14.056 71.5264 14.2031 71.5264 14.375C71.5264 14.5469 71.4613 14.694 71.3311 14.8164C71.2035 14.9388 71.0498 15 70.8701 15ZM75.4492 22.125C74.9076 22.125 74.4323 21.9961 74.0234 21.7383C73.6172 21.4805 73.2995 21.1198 73.0703 20.6562C72.8438 20.1927 72.7305 19.651 72.7305 19.0312C72.7305 18.4062 72.8438 17.8607 73.0703 17.3945C73.2995 16.9284 73.6172 16.5664 74.0234 16.3086C74.4323 16.0508 74.9076 15.9219 75.4492 15.9219C75.9909 15.9219 76.4648 16.0508 76.8711 16.3086C77.2799 16.5664 77.5977 16.9284 77.8242 17.3945C78.0534 17.8607 78.168 18.4062 78.168 19.0312C78.168 19.651 78.0534 20.1927 77.8242 20.6562C77.5977 21.1198 77.2799 21.4805 76.8711 21.7383C76.4648 21.9961 75.9909 22.125 75.4492 22.125ZM75.4492 21.2969C75.8607 21.2969 76.1992 21.1914 76.4648 20.9805C76.7305 20.7695 76.9271 20.4922 77.0547 20.1484C77.1823 19.8047 77.2461 19.4323 77.2461 19.0312C77.2461 18.6302 77.1823 18.2565 77.0547 17.9102C76.9271 17.5638 76.7305 17.2839 76.4648 17.0703C76.1992 16.8568 75.8607 16.75 75.4492 16.75C75.0378 16.75 74.6992 16.8568 74.4336 17.0703C74.168 17.2839 73.9714 17.5638 73.8438 17.9102C73.7161 18.2565 73.6523 18.6302 73.6523 19.0312C73.6523 19.4323 73.7161 19.8047 73.8438 20.1484C73.9714 20.4922 74.168 20.7695 74.4336 20.9805C74.6992 21.1914 75.0378 21.2969 75.4492 21.2969ZM80.4971 18.3906V22H79.5752V16H80.4658V16.9375H80.5439C80.6846 16.6328 80.8981 16.388 81.1846 16.2031C81.471 16.0156 81.8408 15.9219 82.2939 15.9219C82.7002 15.9219 83.0557 16.0052 83.3604 16.1719C83.665 16.3359 83.902 16.5859 84.0713 16.9219C84.2406 17.2552 84.3252 17.6771 84.3252 18.1875V22H83.4033V18.25C83.4033 17.7786 83.2809 17.4115 83.0361 17.1484C82.7913 16.8828 82.4554 16.75 82.0283 16.75C81.734 16.75 81.471 16.8138 81.2393 16.9414C81.0101 17.069 80.8291 17.2552 80.6963 17.5C80.5635 17.7448 80.4971 18.0417 80.4971 18.3906ZM91.9004 14V22H90.9316V15.0156H90.8848L88.9316 16.3125V15.3281L90.9316 14H91.9004Z" fill="white"/>
</svg>
