<svg width="152" height="152" viewBox="0 0 152 152" fill="none" xmlns="http://www.w3.org/2000/svg">
<path d="M97.1917 84.656C94.2797 84.656 91.7838 84.144 89.7038 83.12C87.6558 82.096 85.9118 80.8 84.4717 79.232L89.2718 74.384C90.3918 75.664 91.6558 76.624 93.0638 77.264C94.5038 77.904 96.0397 78.224 97.6718 78.224C99.4638 78.224 100.792 77.856 101.656 77.12C102.52 76.384 102.952 75.408 102.952 74.192C102.952 73.584 102.84 73.04 102.616 72.56C102.424 72.048 102.04 71.632 101.464 71.312C100.92 70.96 100.12 70.72 99.0638 70.592L95.7518 70.16C93.4158 69.84 91.4798 69.264 89.9437 68.432C88.4398 67.568 87.3197 66.448 86.5837 65.072C85.8477 63.664 85.4798 62.032 85.4798 60.176C85.4798 58.16 85.9758 56.4 86.9678 54.896C87.9918 53.36 89.4317 52.16 91.2878 51.296C93.1758 50.432 95.4317 50 98.0557 50C100.584 50 102.808 50.416 104.728 51.248C106.648 52.048 108.296 53.2 109.672 54.704L104.824 59.6C104.024 58.672 103.048 57.92 101.896 57.344C100.776 56.736 99.3517 56.432 97.6237 56.432C95.9917 56.432 94.7758 56.72 93.9758 57.296C93.1758 57.872 92.7757 58.672 92.7757 59.696C92.7757 60.464 92.9038 61.088 93.1598 61.568C93.4478 62.048 93.8798 62.416 94.4557 62.672C95.0638 62.928 95.8317 63.136 96.7598 63.296L100.072 63.824C102.376 64.176 104.28 64.768 105.784 65.6C107.288 66.432 108.408 67.52 109.144 68.864C109.88 70.208 110.248 71.84 110.248 73.76C110.248 75.904 109.736 77.792 108.712 79.424C107.72 81.056 106.248 82.336 104.296 83.264C102.344 84.192 99.9758 84.656 97.1917 84.656Z" fill="white"/>
<path d="M65.5361 84.08V70.976L54.0641 50.576H62.2241L69.4241 63.92H69.5201L76.4321 50.576H84.3521L72.8801 70.928V84.08H65.5361Z" fill="white"/>
<path d="M18 84.08V50.576H25.728L33.936 66.272H34.032L42.144 50.576H49.92V84.08H43.056V62.096H42.912L40.464 66.992L33.936 78.848L27.552 67.04L25.008 61.76H24.864V84.08H18Z" fill="white"/>
<path d="M129.608 98.26C128.878 98.26 128.243 98.095 127.703 97.765C127.173 97.425 126.758 96.95 126.458 96.34C126.168 95.73 126.023 95.01 126.023 94.18C126.023 93.36 126.168 92.645 126.458 92.035C126.748 91.425 127.158 90.955 127.688 90.625C128.218 90.285 128.848 90.115 129.578 90.115C130.328 90.115 130.958 90.285 131.468 90.625C131.978 90.965 132.363 91.43 132.623 92.02C132.893 92.6 133.028 93.25 133.028 93.97V94.57H127.628V94.855C127.628 95.475 127.808 95.985 128.168 96.385C128.538 96.785 129.063 96.985 129.743 96.985C130.223 96.985 130.633 96.875 130.973 96.655C131.313 96.435 131.593 96.14 131.813 95.77L132.743 96.64C132.463 97.12 132.053 97.51 131.513 97.81C130.973 98.11 130.338 98.26 129.608 98.26ZM127.628 93.535H131.408V93.385C131.408 92.975 131.333 92.615 131.183 92.305C131.043 91.995 130.833 91.755 130.553 91.585C130.283 91.415 129.963 91.33 129.593 91.33C129.203 91.33 128.858 91.42 128.558 91.6C128.268 91.78 128.038 92.03 127.868 92.35C127.708 92.66 127.628 93.02 127.628 93.43V93.535Z" fill="white"/>
<path d="M123.257 98.08C122.727 98.08 122.322 97.935 122.042 97.645C121.762 97.355 121.622 96.96 121.622 96.46V91.57H120.407V90.295H121.067C121.347 90.295 121.537 90.235 121.637 90.115C121.737 89.995 121.787 89.805 121.787 89.545V88.15H123.167V90.295H124.817V91.57H123.167V96.805H124.697V98.08H123.257Z" fill="white"/>
<path d="M117.276 98.08V90.295H118.806V98.08H117.276ZM118.041 88.81C117.721 88.81 117.486 88.735 117.336 88.585C117.196 88.425 117.126 88.225 117.126 87.985V87.745C117.126 87.505 117.196 87.31 117.336 87.16C117.486 87.01 117.721 86.935 118.041 86.935C118.361 86.935 118.591 87.01 118.731 87.16C118.881 87.31 118.956 87.505 118.956 87.745V87.985C118.956 88.225 118.881 88.425 118.731 88.585C118.591 88.735 118.361 88.81 118.041 88.81Z" fill="white"/>
<path d="M112.309 98.26C111.589 98.26 110.979 98.13 110.479 97.87C109.979 97.6 109.544 97.235 109.174 96.775L110.179 95.875C110.469 96.225 110.794 96.5 111.154 96.7C111.514 96.9 111.929 97 112.399 97C112.889 97 113.254 96.905 113.494 96.715C113.744 96.525 113.869 96.26 113.869 95.92C113.869 95.65 113.784 95.425 113.614 95.245C113.444 95.065 113.139 94.945 112.699 94.885L112.009 94.795C111.499 94.715 111.049 94.59 110.659 94.42C110.279 94.24 109.984 93.995 109.774 93.685C109.564 93.365 109.459 92.965 109.459 92.485C109.459 91.725 109.724 91.14 110.254 90.73C110.794 90.32 111.484 90.115 112.324 90.115C112.784 90.115 113.184 90.165 113.524 90.265C113.874 90.365 114.184 90.51 114.454 90.7C114.724 90.88 114.969 91.1 115.189 91.36L114.244 92.275C114.044 92.025 113.779 91.815 113.449 91.645C113.129 91.465 112.749 91.375 112.309 91.375C111.859 91.375 111.519 91.465 111.289 91.645C111.059 91.825 110.944 92.075 110.944 92.395C110.944 92.705 111.049 92.94 111.259 93.1C111.469 93.25 111.784 93.36 112.204 93.43L112.909 93.535C113.769 93.655 114.389 93.905 114.769 94.285C115.159 94.655 115.354 95.15 115.354 95.77C115.354 96.27 115.229 96.71 114.979 97.09C114.729 97.46 114.374 97.75 113.914 97.96C113.464 98.16 112.929 98.26 112.309 98.26Z" fill="white"/>
<path d="M100.65 98.08V90.295H102.18V91.81H102.255C102.335 91.55 102.465 91.305 102.645 91.075C102.825 90.845 103.06 90.66 103.35 90.52C103.65 90.37 104.005 90.295 104.415 90.295H104.865V91.78H104.205C103.775 91.78 103.41 91.835 103.11 91.945C102.81 92.045 102.58 92.185 102.42 92.365C102.26 92.545 102.18 92.77 102.18 93.04V98.08H100.65Z" fill="white"/>
<path d="M94.4679 98.26C93.6679 98.26 93.0379 98 92.5779 97.48C92.1279 96.95 91.9029 96.21 91.9029 95.26V90.295H93.4479V95.05C93.4479 95.67 93.5729 96.14 93.8229 96.46C94.0829 96.78 94.4729 96.94 94.9929 96.94C95.2829 96.94 95.5579 96.89 95.8179 96.79C96.0879 96.69 96.3029 96.54 96.4629 96.34C96.6329 96.14 96.7179 95.885 96.7179 95.575V90.295H98.2479V98.08H96.7179V96.805H96.6429C96.5029 97.185 96.2679 97.525 95.9379 97.825C95.6079 98.115 95.1179 98.26 94.4679 98.26Z" fill="white"/>
<path d="M86.6147 98.26C85.8947 98.26 85.2647 98.095 84.7247 97.765C84.1947 97.425 83.7797 96.95 83.4797 96.34C83.1897 95.73 83.0447 95.01 83.0447 94.18C83.0447 93.35 83.1897 92.635 83.4797 92.035C83.7797 91.425 84.1947 90.955 84.7247 90.625C85.2647 90.285 85.8947 90.115 86.6147 90.115C87.3247 90.115 87.9447 90.285 88.4747 90.625C89.0147 90.955 89.4297 91.425 89.7197 92.035C90.0197 92.635 90.1697 93.35 90.1697 94.18C90.1697 95.01 90.0197 95.73 89.7197 96.34C89.4297 96.95 89.0147 97.425 88.4747 97.765C87.9447 98.095 87.3247 98.26 86.6147 98.26ZM86.6147 96.97C87.1947 96.97 87.6597 96.79 88.0097 96.43C88.3597 96.07 88.5347 95.535 88.5347 94.825V93.55C88.5347 92.84 88.3597 92.305 88.0097 91.945C87.6597 91.585 87.1947 91.405 86.6147 91.405C86.0447 91.405 85.5797 91.585 85.2197 91.945C84.8597 92.305 84.6797 92.84 84.6797 93.55V94.825C84.6797 95.535 84.8597 96.07 85.2197 96.43C85.5797 96.79 86.0447 96.97 86.6147 96.97Z" fill="white"/>
<path d="M76.0865 101.08V99.805H77.3915L77.8715 98.41L75.0215 90.295H76.5665L78.1865 95.035L78.6215 96.625H78.6965L79.1765 95.035L80.8115 90.295H82.2815L78.9665 99.685C78.8465 100.025 78.7065 100.295 78.5465 100.495C78.3965 100.705 78.1965 100.855 77.9465 100.945C77.6965 101.035 77.3665 101.08 76.9565 101.08H76.0865Z" fill="white"/>
<path d="M67.2205 98.26C66.4905 98.26 65.8555 98.095 65.3155 97.765C64.7855 97.425 64.3705 96.95 64.0705 96.34C63.7805 95.73 63.6355 95.01 63.6355 94.18C63.6355 93.36 63.7805 92.645 64.0705 92.035C64.3605 91.425 64.7705 90.955 65.3005 90.625C65.8305 90.285 66.4605 90.115 67.1905 90.115C67.9405 90.115 68.5705 90.285 69.0805 90.625C69.5905 90.965 69.9755 91.43 70.2355 92.02C70.5055 92.6 70.6405 93.25 70.6405 93.97V94.57H65.2405V94.855C65.2405 95.475 65.4205 95.985 65.7805 96.385C66.1505 96.785 66.6755 96.985 67.3555 96.985C67.8355 96.985 68.2455 96.875 68.5855 96.655C68.9255 96.435 69.2055 96.14 69.4255 95.77L70.3555 96.64C70.0755 97.12 69.6655 97.51 69.1255 97.81C68.5855 98.11 67.9505 98.26 67.2205 98.26ZM65.2405 93.535H69.0205V93.385C69.0205 92.975 68.9455 92.615 68.7955 92.305C68.6555 91.995 68.4455 91.755 68.1655 91.585C67.8955 91.415 67.5755 91.33 67.2055 91.33C66.8155 91.33 66.4705 91.42 66.1705 91.6C65.8805 91.78 65.6505 92.03 65.4805 92.35C65.3205 92.66 65.2405 93.02 65.2405 93.43V93.535Z" fill="white"/>
<path d="M59.0864 101.26C57.8264 101.26 56.9264 101.095 56.3864 100.765C55.8464 100.435 55.5764 99.975 55.5764 99.385C55.5764 98.955 55.6914 98.615 55.9214 98.365C56.1614 98.125 56.4814 97.965 56.8814 97.885V97.72C56.6114 97.62 56.4014 97.47 56.2514 97.27C56.1114 97.07 56.0414 96.825 56.0414 96.535C56.0414 96.135 56.1764 95.83 56.4464 95.62C56.7164 95.41 57.0414 95.26 57.4214 95.17V95.11C56.9614 94.89 56.6064 94.58 56.3564 94.18C56.1064 93.78 55.9814 93.315 55.9814 92.785C55.9814 92.255 56.1014 91.79 56.3414 91.39C56.5914 90.99 56.9464 90.68 57.4064 90.46C57.8664 90.23 58.4164 90.115 59.0564 90.115C59.3264 90.115 59.5764 90.135 59.8064 90.175C60.0464 90.215 60.2714 90.28 60.4814 90.37V90.175C60.4814 89.835 60.5614 89.57 60.7214 89.38C60.8814 89.19 61.1314 89.095 61.4714 89.095H62.6564V90.34H61.0964V90.7C61.4364 90.93 61.6914 91.225 61.8614 91.585C62.0414 91.945 62.1314 92.345 62.1314 92.785C62.1314 93.305 62.0114 93.765 61.7714 94.165C61.5314 94.565 61.1814 94.875 60.7214 95.095C60.2614 95.315 59.7064 95.425 59.0564 95.425C58.8864 95.425 58.7164 95.415 58.5464 95.395C58.3864 95.375 58.2364 95.35 58.0964 95.32C57.8964 95.39 57.7114 95.49 57.5414 95.62C57.3814 95.74 57.3014 95.905 57.3014 96.115C57.3014 96.335 57.3964 96.49 57.5864 96.58C57.7864 96.66 58.0614 96.7 58.4114 96.7H60.2714C61.2314 96.7 61.9264 96.89 62.3564 97.27C62.7964 97.65 63.0164 98.175 63.0164 98.845C63.0164 99.375 62.8764 99.82 62.5964 100.18C62.3264 100.54 61.9014 100.81 61.3214 100.99C60.7414 101.17 59.9964 101.26 59.0864 101.26ZM58.5614 100.12H59.6114C60.2514 100.12 60.7364 100.025 61.0664 99.835C61.3964 99.655 61.5614 99.375 61.5614 98.995C61.5614 98.715 61.4514 98.49 61.2314 98.32C61.0214 98.16 60.6414 98.08 60.0914 98.08H57.4664C57.2664 98.19 57.1214 98.325 57.0314 98.485C56.9414 98.645 56.8964 98.825 56.8964 99.025C56.8964 99.345 57.0214 99.605 57.2714 99.805C57.5314 100.015 57.9614 100.12 58.5614 100.12ZM59.0564 94.3C59.5464 94.3 59.9264 94.19 60.1964 93.97C60.4664 93.74 60.6014 93.4 60.6014 92.95V92.605C60.6014 92.145 60.4664 91.805 60.1964 91.585C59.9264 91.355 59.5464 91.24 59.0564 91.24C58.5764 91.24 58.1964 91.355 57.9164 91.585C57.6464 91.805 57.5114 92.145 57.5114 92.605V92.95C57.5114 93.4 57.6464 93.74 57.9164 93.97C58.1964 94.19 58.5764 94.3 59.0564 94.3Z" fill="white"/>
<path d="M49.9979 98.26C49.1879 98.26 48.5629 98.05 48.1229 97.63C47.6829 97.21 47.4629 96.645 47.4629 95.935C47.4629 95.425 47.5879 95 47.8379 94.66C48.0879 94.31 48.4579 94.05 48.9479 93.88C49.4379 93.7 50.0479 93.61 50.7779 93.61H52.2179V92.935C52.2179 92.435 52.0829 92.055 51.8129 91.795C51.5529 91.525 51.1379 91.39 50.5679 91.39C50.1079 91.39 49.7279 91.49 49.4279 91.69C49.1279 91.89 48.8829 92.15 48.6929 92.47L47.7629 91.63C48.0129 91.2 48.3729 90.84 48.8429 90.55C49.3129 90.26 49.9179 90.115 50.6579 90.115C51.6479 90.115 52.4129 90.35 52.9529 90.82C53.4929 91.29 53.7629 91.955 53.7629 92.815V96.805H54.5879V98.08H53.7329C53.3229 98.08 53.0079 97.97 52.7879 97.75C52.5679 97.53 52.4279 97.25 52.3679 96.91L52.3379 96.775H52.2629C52.1129 97.265 51.8379 97.635 51.4379 97.885C51.0379 98.135 50.5579 98.26 49.9979 98.26ZM50.4029 97.06C50.7529 97.06 51.0629 97.01 51.3329 96.91C51.6029 96.8 51.8179 96.65 51.9779 96.46C52.1379 96.26 52.2179 96.035 52.2179 95.785V94.63H50.7929C50.2029 94.63 49.7629 94.72 49.4729 94.9C49.1829 95.08 49.0379 95.345 49.0379 95.695V95.98C49.0379 96.33 49.1629 96.6 49.4129 96.79C49.6629 96.97 49.9929 97.06 50.4029 97.06Z" fill="white"/>
<path d="M39.3907 98.08V90.295H40.9207V91.585H40.9957C41.1657 91.155 41.4257 90.805 41.7757 90.535C42.1257 90.255 42.5957 90.115 43.1857 90.115C43.9857 90.115 44.6107 90.38 45.0607 90.91C45.5107 91.43 45.7357 92.17 45.7357 93.13V98.08H44.1907V93.325C44.1907 92.695 44.0657 92.225 43.8157 91.915C43.5657 91.595 43.1807 91.435 42.6607 91.435C42.3707 91.435 42.0907 91.485 41.8207 91.585C41.5607 91.685 41.3457 91.835 41.1757 92.035C41.0057 92.235 40.9207 92.49 40.9207 92.8V98.08H39.3907Z" fill="white"/>
<path d="M33.1522 98.26C32.3422 98.26 31.7172 98.05 31.2772 97.63C30.8372 97.21 30.6172 96.645 30.6172 95.935C30.6172 95.425 30.7422 95 30.9922 94.66C31.2422 94.31 31.6122 94.05 32.1022 93.88C32.5922 93.7 33.2022 93.61 33.9322 93.61H35.3722V92.935C35.3722 92.435 35.2372 92.055 34.9672 91.795C34.7072 91.525 34.2922 91.39 33.7222 91.39C33.2622 91.39 32.8822 91.49 32.5822 91.69C32.2822 91.89 32.0372 92.15 31.8472 92.47L30.9172 91.63C31.1672 91.2 31.5272 90.84 31.9972 90.55C32.4672 90.26 33.0722 90.115 33.8122 90.115C34.8022 90.115 35.5672 90.35 36.1072 90.82C36.6472 91.29 36.9172 91.955 36.9172 92.815V96.805H37.7422V98.08H36.8872C36.4772 98.08 36.1622 97.97 35.9422 97.75C35.7222 97.53 35.5822 97.25 35.5222 96.91L35.4922 96.775H35.4172C35.2672 97.265 34.9922 97.635 34.5922 97.885C34.1922 98.135 33.7122 98.26 33.1522 98.26ZM33.5572 97.06C33.9072 97.06 34.2172 97.01 34.4872 96.91C34.7572 96.8 34.9722 96.65 35.1322 96.46C35.2922 96.26 35.3722 96.035 35.3722 95.785V94.63H33.9472C33.3572 94.63 32.9172 94.72 32.6272 94.9C32.3372 95.08 32.1922 95.345 32.1922 95.695V95.98C32.1922 96.33 32.3172 96.6 32.5672 96.79C32.8172 96.97 33.1472 97.06 33.5572 97.06Z" fill="white"/>
<path d="M18.004 98.08V90.295H19.534V91.585H19.609C19.769 91.175 20.009 90.83 20.329 90.55C20.649 90.26 21.109 90.115 21.709 90.115C22.229 90.115 22.694 90.245 23.104 90.505C23.514 90.755 23.819 91.15 24.019 91.69H24.049C24.189 91.27 24.459 90.905 24.859 90.595C25.259 90.275 25.779 90.115 26.419 90.115C27.199 90.115 27.804 90.38 28.234 90.91C28.674 91.43 28.894 92.17 28.894 93.13V98.08H27.349V93.325C27.349 92.705 27.229 92.235 26.989 91.915C26.749 91.595 26.374 91.435 25.864 91.435C25.584 91.435 25.314 91.485 25.054 91.585C24.804 91.685 24.599 91.835 24.439 92.035C24.289 92.235 24.214 92.49 24.214 92.8V98.08H22.669V93.325C22.669 92.695 22.549 92.225 22.309 91.915C22.069 91.595 21.699 91.435 21.199 91.435C20.929 91.435 20.664 91.485 20.404 91.585C20.144 91.685 19.934 91.835 19.774 92.035C19.614 92.235 19.534 92.49 19.534 92.8V98.08H18.004Z" fill="white"/>
</svg>

